#define font_width 8
#define font_height 104
static unsigned char font_bits[] = {
   0x06, 0x09, 0x09, 0x09, 0x09, 0x09, 0x06, 0x00, 0x06, 0x04, 0x04, 0x04,
   0x04, 0x04, 0x0e, 0x00, 0x06, 0x09, 0x08, 0x08, 0x04, 0x02, 0x0f, 0x00,
   0x06, 0x09, 0x08, 0x04, 0x08, 0x09, 0x06, 0x00, 0x09, 0x09, 0x09, 0x0f,
   0x08, 0x08, 0x08, 0x00, 0x0f, 0x01, 0x01, 0x07, 0x08, 0x09, 0x06, 0x00,
   0x06, 0x09, 0x01, 0x07, 0x09, 0x09, 0x06, 0x00, 0x0f, 0x08, 0x08, 0x08,
   0x04, 0x02, 0x02, 0x00, 0x06, 0x09, 0x09, 0x06, 0x09, 0x09, 0x06, 0x00,
   0x06, 0x09, 0x09, 0x0e, 0x08, 0x09, 0x06, 0x00, 0x00, 0x04, 0x04, 0x00,
   0x04, 0x04, 0x00, 0x00, 0x00, 0x00, 0x00, 0x00, 0x00, 0x06, 0x06, 0x00,
   0x00, 0x00, 0x00, 0x00, 0x00, 0x00, 0x00, 0x00 };
